# xmcd
# 
# Track frame offsets:
#     150
#     25713
#     49228
#     78840
#     100530
#     128874
#     148973
#     164128
#     183676
# 
# Disc length: 2776
# 
# Revision: 23
# Processed by: cddbd v1.5.2PL0 Copyright (c) Steve Scherf et al.
# Submitted via: fre:ac v1.0.31
# 
DISCID=7a0ad609
DTITLE=Peter Gabriel - So (25th Anniversary)
DYEAR=1986
DGENRE=Pop
TTITLE0=Red Rain
TTITLE1=Sledgehammer
TTITLE2=Don't Give Up
TTITLE3=That Voice Again
TTITLE4=Mercy Street
TTITLE5=Big Time
TTITLE6=We Do What We're Told (Milgram's 37)
TTITLE7=This Is the Picture (Excellent Birds)
TTITLE8=In Your Eyes
EXTD=
EXTT0=
EXTT1=
EXTT2=
EXTT3=
EXTT4=
EXTT5=
EXTT6=
EXTT7=
EXTT8=
PLAYORDER=
